<?xml version="1.0" encoding="UTF-8" standalone="no"?>
<!DOCTYPE svg PUBLIC "-//W3C//DTD SVG 1.1//EN" "http://www.w3.org/Graphics/SVG/1.1/DTD/svg11.dtd">
<svg width="100%" height="100%" viewBox="0 0 614 326" version="1.1" xmlns="http://www.w3.org/2000/svg" xmlns:xlink="http://www.w3.org/1999/xlink" xml:space="preserve" xmlns:serif="http://www.serif.com/" style="fill-rule:evenodd;clip-rule:evenodd;stroke-linejoin:round;stroke-miterlimit:2;">
    <path d="M613.85,57.23L613.55,56.89L613.85,57.23C613.92,50.23 610.28,42.82 606.56,38.45C594.01,23.8 571.45,14.45 539.75,12.73C532.59,12.34 513.53,11.25 513.53,11.26C503.53,10.993 493.53,10.82 483.53,10.74C473.43,10.66 461.53,10.94 448.26,11.74C448.32,11.74 433.07,12.74 433.08,12.74C433.09,12.74 428.4,13.08 424.65,13.39L429.63,0C368.63,2.27 360.26,8.85 358.84,9.52C351.46,13 345,19.33 336.73,26.39C332.106,30.371 327.716,34.614 323.58,39.1C321.29,32.8 313.1,10.31 313.09,10.28C306.423,12.093 299.79,13.97 293.19,15.91C276.19,20.71 256.41,26.91 239.59,32.52C239.59,32.52 214.17,27.79 193.18,31.14C172.19,34.49 153.81,44.82 138.74,62.34L138.48,62.67C124.05,51.35 103.83,47.84 78.61,53.67C57.94,58.51 40.07,70.76 25.78,90.57C17.745,101.623 11.794,114.05 8.22,127.24C3.039,139.718 0.25,153.061 -0,166.57C-0.25,180.079 0.43,178.68 0.43,178.68L0.43,179.29C2.23,199.38 8.67,214.38 19.43,223.63C32.03,234.36 47.98,235.57 67.21,228.12C89.03,219.67 106.89,205.12 120.51,185.12C120.51,185.12 122.26,182.53 123.65,180.51C124.856,181.938 126.166,183.275 127.57,184.51C139.88,194.95 155.91,196.71 175.57,190.7C179.217,189.586 182.805,188.288 186.32,186.81C204.06,228.43 183,325.49 183,325.53C193.5,318.79 354.69,243.18 544,215C545.46,212.23 604,119.1 612.32,105.94C612.32,105.84 585.58,106.56 567.95,107.4C583.02,99.6 590.48,89.8 590.49,89.84C590.5,89.88 569.91,79.11 557.14,72.32C576.82,66.67 613.77,56.73 613.85,57.23ZM613.48,56.81L613.35,56.66L613.48,56.81Z" style="fill:rgb(35,31,32);fill-rule:nonzero;"/>
    <path d="M89.89,153C84.89,160.07 79.11,164.65 72.14,167C65.92,169.06 60.81,168.31 56.47,164.62C52.13,160.93 49.99,155.95 49.47,148.98C49.47,147.42 49.47,145.86 49.54,144.3L49.54,143.42C50.2,133.6 53.13,124.93 58.29,117.73C63.487,110.329 71.149,105.011 79.9,102.73C88.31,100.43 94.33,102.38 98.22,108.51L99.66,110.77C110.993,102.03 122.43,93.56 133.97,85.36L132.14,83C121.37,69.77 103.62,65.44 79.76,71.31C63.93,75.24 50.13,84.88 38.93,100.31C28.04,115.31 22.4,131.78 21.93,148.66C21.93,148.66 22.08,153.66 22.18,156.8C22.18,158.24 22.26,159.3 22.26,159.3C23.53,174.54 28.26,185.86 36.26,192.81C45.12,200.43 56.65,201.49 70.73,196.46C87.73,190.425 102.346,179.081 112.41,164.11L114.41,161.11C106.803,157.623 99.17,154.1 91.51,150.54L89.89,153ZM243.43,79.93C243.372,78.439 243.178,76.956 242.85,75.5C242.294,72.908 241.508,70.372 240.5,67.92C242.36,66.51 247.5,62.63 247.5,62.65L246,60.76C235.63,48.1 217.94,43.18 193.73,47.35C177.66,50.13 163.44,58.29 151.63,71.9C141.49,83.65 135.42,96.62 133.41,110.19C133.14,111.98 132.93,113.78 132.81,115.59L132.76,125.41C133.49,139.5 137.87,150.14 145.69,156.89C154.33,164.29 165.92,165.78 180.27,161.78C196.97,157.326 211.883,147.795 222.94,134.51C233.047,122.318 239.703,107.637 242.21,92C242.972,88.021 243.381,83.981 243.43,79.93ZM211.25,99.61C210.028,107.49 206.9,114.953 202.14,121.35C196.9,128.35 190.55,132.72 182.69,134.71C176.36,136.31 171.24,135.39 167,131.79C162.92,128.34 160.79,123.51 160.51,117.09C160.597,115.383 160.69,113.68 160.79,111.98C161.242,107.611 162.323,103.33 164,99.27C165.597,95.463 167.776,91.927 170.46,88.79C176.185,82.103 184.06,77.608 192.73,76.08C200.21,74.6 205.62,76.21 209.36,80.5C208.46,81.12 203.87,84.38 203.87,84.38L206.12,85.68L207.12,86.26C210.06,87.95 211.55,90.93 211.68,95.37L211.25,99.61ZM384.85,75.67C386.283,71.223 387.697,66.813 389.09,62.44C394.297,46.813 399.577,31.39 404.93,16.17L400.69,16.7C400.69,16.7 393.08,17.7 393.06,17.7C393.04,17.7 381.15,20.19 381.15,20.21C377.545,21.073 373.897,21.74 370.22,22.21L369.54,22.27L368.93,22.56C361.882,26.072 355.312,30.471 349.38,35.65C340.029,43.539 331.614,52.474 324.3,62.28C321.04,66.63 317.96,71.12 315.12,75.78C314.419,71.445 313.453,67.157 312.23,62.94C311.58,60.66 310.88,58.34 310.05,55.94L300.32,29.24L297.53,30.08C287.07,33.127 276.643,36.33 266.25,39.69L270.18,48.69C271.79,52.09 272.04,53.63 272.05,54.26C272.05,54.26 271.86,55.01 271.81,55.26C268.866,60.355 266.045,65.52 263.35,70.75C262.35,72.75 261.4,74.62 260.59,76.34C255.346,87.051 250.757,98.072 246.85,109.34C242.9,121.2 239.38,133.06 236.39,144.56C235.99,146.087 235.59,147.62 235.19,149.16C246.717,143.827 258.3,138.673 269.94,133.7L270.11,131.85C270.84,123.85 273.36,114.9 277.65,105.27C277.65,105.27 281.25,97.14 284.1,90.87C284.2,91.36 284.28,91.69 284.38,92.26C287.13,106.67 288.52,118.42 288.58,127.36L288.12,134.46L291.94,133.23C301.867,129.23 311.833,125.35 321.84,121.59C322,121.12 322.17,120.64 322.34,120.16C326.87,106.97 331.64,96.7 336.47,89.55C344.47,77.68 350.56,70.33 355.1,65.66C355.88,64.86 356.62,64.13 357.31,63.47L356.2,66.03C354.94,69.03 353.86,71.65 353.01,73.9C353.01,73.9 345.07,94.72 345.09,94.77C339.82,108.16 335.92,118.99 333.43,126.77C332.97,128.2 332.51,129.63 332.06,131.08C340.6,127.66 349.17,124.4 357.76,121.2C362.92,119.28 368.08,117.36 373.25,115.53C373.37,115.03 373.5,114.53 373.62,114.03C375.25,107.26 377.17,100.3 379.31,93.37C381.157,87.417 383.003,81.517 384.85,75.67ZM478,41.59C481.113,35.463 484.24,29.393 487.38,23.38L483.12,23.38C473.34,23.38 461.88,23.83 449.12,24.71C438.193,25.523 427.28,26.467 416.38,27.54C416.18,28.04 415.98,28.54 415.77,29.04C412.837,35.94 409.913,42.897 407,49.91C404.087,56.923 424.55,46.91 431.45,45.91C429.01,49.49 425.88,54.15 425.88,54.16C420.142,62.947 414.978,72.096 410.42,81.55C405.862,91.004 406.28,91.09 406.29,91.11C406.3,91.13 404.95,94.32 404.13,96.33C401.77,96.71 397.61,97.42 397.61,97.42L387.88,99.29C384.913,107.097 381.953,114.96 379,122.88L383.54,121.75C403.82,116.75 417.06,114.12 422.73,113.18C426.21,112.63 433.87,111.67 445.51,110.51L447.69,110.3C450.95,103.227 454.23,96.227 457.53,89.3C452.197,89.807 446.863,90.343 441.53,90.91L437.27,91.43C438.81,87.7 441.87,80.43 441.87,80.43C447.38,68.33 451.79,59.68 454.87,54.51C456.729,51.26 458.776,48.122 461,45.11L462.2,43.55C468.56,43.31 477.27,43.08 477.27,43.08L478,41.59ZM539.6,81C533.746,84.77 526.961,86.847 520,87C513.45,87.23 508.35,85.78 504.4,82.48C500.745,79.693 498.762,75.22 499.15,70.64C499.39,69.4 499.64,68.15 499.89,66.91C501.716,60.393 505.969,54.816 511.77,51.33C518.26,47.27 525.99,45.4 535.37,45.56C544.13,45.72 549.98,48.23 553.21,53.08L554.39,54.86C566.857,51.347 579.367,48.117 591.92,45.17L590.32,43.31C581,32.39 563.59,25.72 538.86,24.68C522.44,24.01 507.39,27.68 494.25,35.85C481.46,43.85 473.78,53.94 471.25,65.32L470.3,72.62C469.76,83.21 473.21,91.77 480.53,97.91C488.61,104.66 500.21,107.4 515.1,106.56C533.3,105.56 548.75,100.81 561.1,92.71L563.5,91.15C556.2,87.397 548.867,83.6 541.5,79.76L539.6,81Z" style="fill:rgb(41,204,130);fill-rule:nonzero;"/>
    <path d="M305,154.85C306.493,153.017 307.99,151.19 309.49,149.37C300.73,151.783 291.99,154.283 283.27,156.87L280.33,157.81L279.33,158.14L278.59,158.95C272.96,165.28 265.45,176.18 255.83,192.79C251.13,200.88 246.83,208.79 242.83,216.69C244.68,194.3 245.59,178.69 245.42,170.1C245.33,165.68 245.02,164.29 244.75,163.57L243.94,161.4L241.28,162.61C231.347,167.13 221.45,171.797 211.59,176.61L212.31,179.04C212.44,179.48 212.76,181.31 212.98,188.82C213.47,204.99 213.69,222.82 213.66,241.82C213.59,270.16 213.02,275.47 212.78,276.41L211.49,281.41L216.15,278.73C225.257,273.203 234.403,267.82 243.59,262.58L244.17,261.77C248.85,255.09 254.73,244.96 261.7,231.86C261.7,231.68 277.15,202.11 277.19,202.23C277.19,202.11 290.19,177.59 290.24,177.67C294.486,169.648 299.425,162.012 305,154.85ZM375.42,157.71C378.24,150.523 381.08,143.393 383.94,136.32L379.83,137.02C370.42,138.63 359.4,140.9 347.11,143.88L342.68,145C333.68,147.273 324.703,149.633 315.75,152.08L315.21,153.81C312.61,161.77 310.033,169.77 307.48,177.81C304.927,185.85 323.69,172.05 330.48,169.81L330.82,169.69L330.32,170.69C328.17,174.8 325.71,179.57 325.71,179.57C320.466,190.036 315.792,200.778 311.71,211.75C307.628,222.722 308.04,222.75 308.04,222.75C308.04,222.75 306.86,226.45 306.13,228.75C303.88,229.53 299.93,230.92 299.93,230.93C299.93,230.94 290.67,234.42 290.67,234.44C288.003,243.36 285.39,252.36 282.83,261.44L287.13,259.53C306.38,251.06 318.99,246.15 324.39,244.28C327.71,243.14 335.03,240.93 346.16,237.88L348.25,237.31C351.177,229.097 354.12,220.953 357.08,212.88C351.96,214.26 346.843,215.67 341.73,217.11L337.65,218.33C339.01,214.05 341.73,205.63 341.73,205.64C344.69,197.22 347.293,190.22 349.54,184.64C351.03,180.92 352.36,177.8 353.54,175.35C355.81,170.35 357.7,166.61 359.16,164.14L360.27,162.25C366.38,160.99 374.76,159.36 374.76,159.36C374.95,158.86 375.18,158.29 375.42,157.71ZM494.9,122.73C486.46,123.923 478.03,125.197 469.61,126.55L466.61,127.08L465.07,127.36L464.26,128.41C452.39,143.99 444.75,155.41 441.34,161.58L439,165.74C436.929,153.314 433.982,141.05 430.18,129.04L429.55,127.04L426.7,127.87C416.407,130.897 406.143,134.073 395.91,137.4L399.4,145.4C400.85,148.4 401.03,149.75 401.02,150.31L400.75,151.18C395.75,158.78 391.85,165.3 389.07,170.43C387.27,173.69 385.61,176.83 384.07,179.85C380.07,187.63 376.86,194.6 374.52,200.52C370.342,211.056 366.516,221.729 363.05,232.52L361.72,236.71C373.127,231.377 384.587,226.26 396.1,221.36L396.33,219.69C397.33,212.54 400.12,204.39 404.65,195.61C404.65,195.61 408.45,188.21 411.45,182.5C411.53,182.93 411.59,183.23 411.67,183.74C413.81,196.51 414.74,206.95 414.46,214.92L413.76,221.27L417.53,220.01C427.357,216.01 437.213,212.153 447.1,208.44C450.24,200.787 453.403,193.203 456.59,185.69C461.02,175.37 464.59,167.76 467.32,162.74C468.05,161.39 468.72,160.18 469.32,159.21C476.217,147.814 483.791,136.841 492,126.35L494.9,122.73ZM582,118.11C567.853,118.83 553.727,119.757 539.62,120.89C526.34,122.223 513.083,123.753 499.85,125.48L499.22,126.9C496.213,133.353 493.213,139.867 490.22,146.44C487.227,153.013 499.77,144.63 504.15,143.86C501.95,146.86 499.37,150.45 499.37,150.45C497.71,152.98 496.11,155.5 494.54,158.04C490.68,164.28 487.11,170.52 483.9,176.66C481.18,181.93 478.05,188.73 474.6,196.94C470,208 470,208.61 470,209.07C470,209.91 469.91,210.73 469.87,211.56L473.25,210.69C494,204.4 510,200.76 520.6,199.15C526.6,198.243 532.62,197.373 538.66,196.54C542.133,189.96 545.63,183.45 549.15,177.01C549.15,176.91 516.84,181.95 510.27,183.22C512.72,177.66 515.01,172.82 517.07,168.87C520.7,168.25 548.68,164.61 548.69,164.69C550.12,162.2 551.56,159.78 552.99,157.3C554.99,153.9 556.93,150.47 558.92,147.11C558.92,147.05 533.71,149.73 526.87,150.64L527.87,149.2C527.87,149.2 534.46,139.49 534.82,139C542.92,138.08 552.94,137.21 564.82,136.52C568.467,136.307 572.133,136.103 575.82,135.91C579.313,129.837 582.82,123.837 586.34,117.91L582,118.11Z" style="fill:rgb(249,225,80);fill-rule:nonzero;"/>
</svg>
