<?xml version="1.0" encoding="UTF-8" standalone="no"?>
<!DOCTYPE svg PUBLIC "-//W3C//DTD SVG 1.1//EN" "http://www.w3.org/Graphics/SVG/1.1/DTD/svg11.dtd">
<svg width="100%" height="100%" viewBox="0 0 1024 1024" version="1.1" xmlns="http://www.w3.org/2000/svg" xmlns:xlink="http://www.w3.org/1999/xlink" xml:space="preserve" xmlns:serif="http://www.serif.com/" style="fill-rule:evenodd;clip-rule:evenodd;stroke-linejoin:round;stroke-miterlimit:2;">
    <g transform="matrix(1.61231,0,0,1.61231,105.205,23)">
        <g id="_1024" serif:id="1024">
            <g id="favicon-2x" serif:id="favicon@2x">
                <path id="Path" d="M101.002,533.706C96.828,518.091 106.073,502.042 121.65,497.859L441.306,412.005C456.884,407.821 472.894,417.086 477.068,432.701L489.664,479.82C495.229,500.639 482.904,522.039 462.134,527.618L198.888,598.322C157.349,609.477 114.652,584.768 103.521,543.13L101.002,533.706Z" style="fill:rgb(79,70,229);fill-rule:nonzero;"/>
                <path id="Path1" serif:id="Path" d="M2.678,167.481C-8.474,125.892 16.225,83.144 57.845,72L179,523.823L103.64,544L2.678,167.481Z" style="fill:rgb(79,70,229);fill-rule:nonzero;"/>
                <path id="Path2" serif:id="Path" d="M421,377.167L458.545,367L478.666,442.89C484.222,463.846 471.917,485.384 451.181,491L421,377.167Z" style="fill:rgb(67,56,202);fill-rule:nonzero;"/>
                <path id="Path3" serif:id="Path" d="M367.936,28.854C362.369,8.093 341.01,-4.227 320.232,1.336L56.878,71.842C36.1,77.405 23.769,98.744 29.337,119.505L140.226,533L290.715,492.708C301.103,489.928 307.268,479.259 304.485,468.877C301.7,458.498 307.865,447.829 318.256,445.046L431.122,414.83C451.901,409.266 464.231,387.928 458.663,367.168L367.936,28.854Z" style="fill:rgb(99,102,241);fill-rule:nonzero;"/>
                <path id="Path4" serif:id="Path" d="M264.274,130.221C265.333,118.807 280.021,114.872 286.647,124.227L290.392,129.515C292.474,132.456 295.738,134.34 299.326,134.673L305.779,135.273C317.192,136.333 321.129,151.021 311.773,157.646L306.486,161.391C303.543,163.474 301.659,166.738 301.327,170.326L300.726,176.778C299.667,188.193 284.979,192.128 278.353,182.773L274.608,177.485C272.526,174.544 269.262,172.66 265.674,172.326L259.221,171.727C247.808,170.667 243.871,155.979 253.227,149.354L258.514,145.609C261.457,143.526 263.341,140.262 263.673,136.674L264.274,130.221Z" style="fill:rgb(49,46,129);fill-rule:nonzero;"/>
                <path id="Path5" serif:id="Path" d="M208.746,224.195C209.804,212.808 224.458,208.882 231.065,218.214L252.304,248.201C254.381,251.135 257.637,253.015 261.217,253.348L297.805,256.746C309.191,257.803 313.119,272.458 303.785,279.065L273.798,300.304C270.866,302.381 268.984,305.637 268.652,309.217L265.253,345.805C264.197,357.191 249.544,361.119 242.933,351.785L221.698,321.798C219.618,318.866 216.362,316.984 212.783,316.652L176.195,313.253C164.808,312.197 160.882,297.544 170.214,290.933L200.201,269.697C203.136,267.619 205.015,264.363 205.348,260.783L208.746,224.195Z" style="fill:rgb(49,46,129);fill-rule:nonzero;"/>
                <path id="Path6" serif:id="Path" d="M140.335,532.151C134.775,511.393 147.09,490.058 167.842,484.496L430.864,414L451,489.169L187.978,559.664C167.226,565.227 145.895,552.909 140.335,532.151Z" style="fill:rgb(238,242,255);fill-rule:nonzero;"/>
            </g>
        </g>
    </g>
</svg>
